<svg aria-hidden="true" style="position: absolute; width: 0; height: 0; overflow: hidden;" version="1.1" xmlns="http://www.w3.org/2000/svg" xmlns:xlink="http://www.w3.org/1999/xlink">
<defs>
<symbol id="icon-instagram" viewBox="0 0 32 32">
<path d="M10.24 1.92c-4.587 0-8.32 3.733-8.32 8.32v11.52c0 4.587 3.733 8.32 8.32 8.32h11.52c4.587 0 8.32-3.733 8.32-8.32v-11.52c0-4.587-3.733-8.32-8.32-8.32h-11.52zM10.24 3.2h11.52c3.895 0 7.040 3.145 7.040 7.040v11.52c0 3.895-3.145 7.040-7.040 7.040h-11.52c-3.895 0-7.040-3.145-7.040-7.040v-11.52c0-3.895 3.145-7.040 7.040-7.040zM23.68 7.040c-0.707 0-1.28 0.573-1.28 1.28v0c0 0.707 0.573 1.28 1.28 1.28v0c0.707 0 1.28-0.573 1.28-1.28v0c0-0.707-0.573-1.28-1.28-1.28v0zM16 8.96c-3.88 0-7.040 3.159-7.040 7.040s3.159 7.040 7.040 7.040c3.881 0 7.040-3.16 7.040-7.040s-3.16-7.040-7.040-7.040zM16 10.24c3.189 0 5.76 2.571 5.76 5.76s-2.571 5.76-5.76 5.76c-3.189 0-5.76-2.571-5.76-5.76s2.571-5.76 5.76-5.76z"></path>
</symbol>
<symbol id="icon-telegram" viewBox="0 0 32 32">
<path d="M16 1.28c-8.122 0-14.72 6.598-14.72 14.72s6.598 14.72 14.72 14.72c8.122 0 14.72-6.598 14.72-14.72s-6.598-14.72-14.72-14.72zM16 2.56c7.43 0 13.44 6.010 13.44 13.44s-6.010 13.44-13.44 13.44c-7.43 0-13.44-6.010-13.44-13.44s6.010-13.44 13.44-13.44zM21.816 8.982c-0.438 0-0.93 0.101-1.505 0.309-0.893 0.322-11.402 4.784-12.598 5.291-0.684 0.291-1.956 0.831-1.956 2.12 0 0.854 0.501 1.465 1.486 1.817 0.53 0.189 1.788 0.57 2.519 0.771 0.31 0.085 0.639 0.129 0.978 0.129 0.662 0 1.329-0.165 1.851-0.456-0.004 0.108-0.002 0.216 0.011 0.325 0.079 0.672 0.493 1.304 1.107 1.691 0.402 0.253 3.685 2.453 4.175 2.803 0.689 0.492 1.45 0.753 2.2 0.753 1.434 0 1.915-1.48 2.146-2.191 0.336-1.032 1.594-9.427 1.736-10.908 0.097-1.014-0.326-1.85-1.131-2.235-0.301-0.145-0.646-0.219-1.020-0.219zM21.816 10.262c0.176 0 0.333 0.029 0.466 0.094 0.303 0.145 0.457 0.469 0.41 0.959-0.155 1.615-1.41 9.811-1.677 10.632-0.229 0.703-0.47 1.308-0.93 1.308s-0.962-0.161-1.456-0.515c-0.495-0.353-3.78-2.556-4.236-2.844-0.4-0.252-0.823-0.881-0.227-1.489 0.491-0.5 4.214-4.114 4.533-4.433 0.237-0.237 0.126-0.524-0.106-0.524-0.080 0-0.176 0.034-0.275 0.115-0.389 0.318-5.814 3.948-6.284 4.24-0.311 0.193-0.793 0.332-1.293 0.332-0.213 0-0.429-0.026-0.636-0.082-0.722-0.199-1.944-0.57-2.429-0.742-0.467-0.166-0.636-0.326-0.636-0.611 0-0.406 0.573-0.686 1.176-0.943 0.637-0.271 11.667-4.955 12.53-5.265 0.399-0.145 0.765-0.232 1.071-0.232z"></path>
</symbol>
<symbol id="icon-viber" viewBox="0 0 32 32">
<path d="M15.633 1.92c-0.873 0.005-1.748 0.058-2.63 0.165-1.688 0.208-3.36 0.553-4.965 1.29-2.553 1.173-4.362 3.162-4.888 6.055-0.223 1.22-0.402 2.457-0.505 3.703-0.197 2.418-0.075 4.843 0.61 7.225 0.54 1.878 1.535 3.565 3.277 4.66 0.737 0.462 1.71 0.688 2.217 0.922 0.143 0.067 0.178 0.108 0.185 0.117 0.008 0.008 0.027 0.025 0.025 0.175-0.018 1.53 0 4.49 0 4.49l0.002 0.637h1.143l0.185-0.18c0 0 2.902-2.793 3.953-3.942 0.19-0.205 0.287-0.32 0.307-0.332 0.018-0.012-0.012-0.020 0.182-0.025 1.377-0.027 2.752-0.080 4.127-0.155 1.813-0.1 3.66-0.273 5.438-1.015 1.547-0.648 2.84-1.705 3.622-3.29 0.8-1.625 1.227-3.348 1.387-5.13 0.265-2.967 0.172-5.94-0.648-8.87-0.483-1.718-1.453-3.17-2.94-4.195-1.78-1.225-3.788-1.685-5.753-1.978-1.148-0.17-2.303-0.282-3.462-0.317-0.29-0.008-0.58-0.012-0.873-0.010zM16.47 3.21c1.102 0.030 2.205 0.138 3.31 0.303 1.895 0.282 3.683 0.713 5.215 1.768 1.242 0.855 2.017 2.010 2.433 3.482 0.765 2.74 0.863 5.547 0.605 8.415-0.148 1.652-0.54 3.21-1.262 4.677-0.637 1.295-1.633 2.117-2.968 2.675-1.55 0.648-3.235 0.82-5.010 0.918-1.36 0.075-2.723 0.125-4.085 0.152-0.342 0.008-0.678 0.098-0.915 0.273s-0.345 0.337-0.492 0.497c-0.75 0.82-2.245 2.262-3.060 3.053-0.005-0.955-0.012-2.11 0-3.175 0.005-0.328-0.070-0.663-0.258-0.927s-0.445-0.425-0.693-0.54c-0.723-0.335-1.668-0.59-2.078-0.848-1.433-0.9-2.245-2.25-2.728-3.93-0.632-2.198-0.752-4.46-0.565-6.762 0.1-1.195 0.273-2.393 0.49-3.58 0.455-2.502 1.885-4.077 4.16-5.122 1.438-0.66 2.973-0.985 4.59-1.183 1.103-0.135 2.205-0.178 3.31-0.145zM16.74 6.4c-0.527 0-1.040 0.060-1.537 0.17-0.342 0.080-0.56 0.423-0.482 0.768s0.422 0.56 0.768 0.482c0.402-0.093 0.822-0.14 1.252-0.14 3.125 0 5.645 2.52 5.645 5.643 0 0.432-0.047 0.852-0.14 1.258-0.078 0.342 0.137 0.688 0.483 0.765s0.688-0.14 0.765-0.485c0.113-0.495 0.172-1.008 0.172-1.537 0-3.815-3.108-6.923-6.925-6.923zM10.355 7.683c-0.105-0.005-0.213 0.003-0.325 0.027-1.162 0.258-2.317 1.1-2.35 2.605 0.032 0.21 0.030 0.435 0.107 0.625 0.38 0.93 0.71 1.89 1.185 2.77 2.313 4.275 5.81 7.248 10.268 9.135 0.532 0.225 1.082 0.273 1.62 0.047 0.74-0.308 1.367-0.782 1.785-1.465 0.573-0.938 0.58-1.587-0.363-2.28-0.617-0.455-1.225-0.922-1.85-1.367-0.953-0.675-1.982-0.793-2.692 0.392-0.038 0.060-0.093 0.11-0.14 0.16-0.365 0.387-0.813 0.483-1.288 0.288-1.803-0.742-3.195-1.94-4.035-3.723-0.495-1.047-0.36-1.572 0.565-2.27 0.092-0.068 0.18-0.14 0.265-0.217 0.405-0.37 0.512-0.81 0.273-1.307-0.543-1.135-1.265-2.148-2.18-3.020-0.248-0.235-0.53-0.383-0.845-0.4zM16.73 8.32c-0.282 0-0.563 0.023-0.838 0.070-0.232 0.030-0.43 0.185-0.515 0.402-0.085 0.22-0.043 0.467 0.107 0.648 0.152 0.178 0.393 0.26 0.622 0.21 0.2-0.033 0.41-0.050 0.622-0.050 2.080 0 3.75 1.67 3.75 3.75 0 0.213-0.017 0.422-0.050 0.623-0.050 0.23 0.032 0.47 0.21 0.623 0.18 0.15 0.427 0.193 0.648 0.107 0.218-0.085 0.372-0.283 0.402-0.515 0.047-0.275 0.070-0.555 0.070-0.838 0-2.77-2.26-5.030-5.030-5.030zM16.64 10.24c-0.23-0.002-0.445 0.117-0.563 0.318-0.115 0.2-0.115 0.445 0 0.645 0.117 0.2 0.332 0.32 0.563 0.318 1.067 0 1.92 0.853 1.92 1.92-0.003 0.23 0.117 0.445 0.317 0.563 0.2 0.115 0.445 0.115 0.645 0 0.2-0.117 0.32-0.332 0.317-0.563 0-1.76-1.44-3.2-3.2-3.2z"></path>
</symbol>
<symbol id="icon-whatsapp" viewBox="0 0 32 32">
<path d="M16 1.28c-8.122 0-14.72 6.598-14.72 14.72 0 2.611 0.716 5.047 1.91 7.174l-1.886 6.734c-0.015 0.052-0.024 0.111-0.024 0.172 0 0.354 0.287 0.64 0.64 0.64 0.055 0 0.107-0.007 0.158-0.020l-0.004 0.001 7.021-1.74c2.063 1.101 4.404 1.759 6.905 1.759 8.122 0 14.72-6.598 14.72-14.72s-6.598-14.72-14.72-14.72zM16 2.56c7.43 0 13.44 6.010 13.44 13.44s-6.010 13.44-13.44 13.44c-2.382 0-4.613-0.621-6.553-1.706-0.090-0.051-0.198-0.081-0.312-0.081-0.055 0-0.108 0.007-0.158 0.020l0.004-0.001-6.149 1.524 1.649-5.883c0.015-0.052 0.024-0.113 0.024-0.175 0-0.119-0.033-0.231-0.090-0.327l0.002 0.003c-1.179-1.999-1.857-4.324-1.857-6.814 0-7.43 6.010-13.44 13.44-13.44zM10.651 8.32c-0.41 0-0.996 0.153-1.478 0.671-0.289 0.312-1.494 1.485-1.494 3.549 0 2.151 1.492 4.008 1.672 4.246h0.001v0.001c-0.017-0.023 0.229 0.334 0.557 0.761s0.788 0.989 1.365 1.596c1.154 1.215 2.777 2.62 4.791 3.479 0.928 0.395 1.659 0.633 2.214 0.808 1.027 0.323 1.963 0.274 2.666 0.17 0.526-0.078 1.105-0.33 1.677-0.692s1.134-0.813 1.381-1.497c0.177-0.491 0.267-0.944 0.3-1.317 0.016-0.187 0.018-0.351 0.006-0.504s0.001-0.269-0.141-0.503c-0.298-0.489-0.635-0.502-0.988-0.676-0.196-0.097-0.753-0.369-1.311-0.635s-1.041-0.501-1.339-0.608c-0.188-0.068-0.418-0.165-0.749-0.128s-0.658 0.276-0.849 0.559c-0.18 0.268-0.907 1.125-1.129 1.378-0.003-0.002 0.016 0.007-0.071-0.036-0.274-0.136-0.609-0.251-1.105-0.512s-1.116-0.648-1.795-1.246v-0.001c-1.010-0.889-1.718-2.006-1.941-2.381 0.015-0.018-0.002 0.004 0.030-0.027l0.001-0.001c0.228-0.225 0.43-0.493 0.601-0.69 0.242-0.279 0.349-0.525 0.465-0.755 0.231-0.458 0.102-0.962-0.031-1.227v-0.001c0.009 0.018-0.072-0.161-0.16-0.369s-0.2-0.478-0.32-0.765c-0.24-0.575-0.507-1.22-0.666-1.598v-0.001c-0.187-0.445-0.441-0.765-0.773-0.92s-0.624-0.111-0.636-0.111h-0.001c-0.237-0.011-0.496-0.014-0.754-0.014zM10.651 9.6c0.247 0 0.49 0.003 0.694 0.012 0.21 0.010 0.197 0.011 0.156-0.008s0.015-0.025 0.134 0.258c0.156 0.37 0.425 1.017 0.665 1.594 0.12 0.288 0.233 0.559 0.322 0.771s0.139 0.331 0.195 0.444v0.001l0.001 0.001c0.055 0.109 0.050 0.039 0.031 0.078-0.135 0.268-0.153 0.334-0.29 0.491-0.208 0.24-0.42 0.507-0.533 0.617-0.098 0.097-0.276 0.247-0.386 0.541s-0.059 0.699 0.119 1.001c0.237 0.402 1.017 1.672 2.23 2.74 0.764 0.673 1.475 1.119 2.044 1.419s1.031 0.475 1.135 0.526c0.246 0.122 0.515 0.216 0.828 0.179s0.582-0.227 0.754-0.421l0.001-0.001c0.228-0.259 0.907-1.034 1.233-1.511 0.014 0.005 0.009 0.001 0.117 0.040v0.001h0.001c0.049 0.018 0.668 0.295 1.22 0.558s1.112 0.536 1.294 0.626c0.263 0.13 0.387 0.215 0.419 0.215 0.002 0.056 0.004 0.117-0.004 0.21-0.022 0.257-0.091 0.613-0.229 0.994-0.067 0.186-0.419 0.571-0.861 0.851s-0.982 0.478-1.181 0.508c-0.6 0.088-1.313 0.121-2.095-0.125-0.543-0.17-1.219-0.391-2.095-0.764-1.777-0.758-3.286-2.047-4.365-3.183-0.539-0.568-0.971-1.096-1.279-1.496s-0.441-0.607-0.553-0.754l-0.001-0.001c-0.198-0.262-1.412-1.951-1.412-3.473 0-1.61 0.748-2.241 1.152-2.678 0.212-0.229 0.445-0.262 0.539-0.262z"></path>
</symbol>
<symbol id="icon-whatsapp1" viewBox="0 0 32 32">
<path fill="#fff" style="fill: var(--color2, #fff)" d="M3.245 28.869l1.796-6.557c-1.108-1.919-1.691-4.096-1.69-6.326 0.003-6.977 5.681-12.653 12.658-12.653 3.386 0.001 6.563 1.319 8.953 3.711s3.705 5.571 3.704 8.952c-0.003 6.977-5.681 12.653-12.657 12.653-0.001 0 0 0 0 0h-0.005c-2.118-0.001-4.2-0.532-6.049-1.541l-6.71 1.76z"></path>
<path fill="#fff" style="fill: var(--color2, #fff)" d="M3.245 29.202c-0.088 0-0.173-0.035-0.237-0.099-0.083-0.085-0.116-0.208-0.085-0.322l1.759-6.424c-1.091-1.937-1.666-4.137-1.665-6.371 0.003-7.161 5.83-12.987 12.991-12.987 3.473 0.001 6.737 1.354 9.189 3.809s3.803 5.718 3.801 9.187c-0.003 7.161-5.831 12.987-12.991 12.987-2.126-0.001-4.229-0.525-6.096-1.518l-6.583 1.726c-0.028 0.008-0.056 0.011-0.085 0.011z"></path>
<path fill="#cfd8dc" style="fill: var(--color4, #cfd8dc)" d="M16.009 3.333c3.386 0.001 6.563 1.319 8.953 3.711s3.705 5.571 3.704 8.952c-0.003 6.977-5.681 12.653-12.657 12.653h-0.005c-2.118-0.001-4.2-0.532-6.049-1.541l-6.71 1.76 1.796-6.557c-1.108-1.919-1.691-4.096-1.69-6.326 0.003-6.977 5.681-12.653 12.658-12.653zM16.009 28.649c0 0 0 0 0 0s0 0 0 0zM16.009 28.649c0 0 0 0 0 0s0 0 0 0zM16.009 2.667c0 0 0 0 0 0-7.344 0-13.321 5.975-13.325 13.319-0.001 2.245 0.566 4.457 1.641 6.415l-1.723 6.293c-0.063 0.23 0.001 0.475 0.169 0.645 0.127 0.128 0.298 0.198 0.474 0.198 0.057 0 0.113-0.007 0.169-0.022l6.458-1.693c1.885 0.979 3.999 1.495 6.131 1.496 7.349 0 13.327-5.975 13.33-13.32 0.001-3.559-1.383-6.906-3.899-9.423-2.517-2.518-5.864-3.905-9.426-3.907v0z"></path>
<path fill="#40c351" style="fill: var(--color22, #40c351)" d="M23.451 8.555c-1.987-1.988-4.627-3.083-7.438-3.084-5.803 0-10.522 4.717-10.525 10.516-0.001 1.987 0.555 3.922 1.609 5.597l0.251 0.398-1.063 3.881 3.982-1.044 0.385 0.228c1.615 0.959 3.467 1.465 5.355 1.466h0.004c5.799 0 10.518-4.718 10.52-10.517 0.001-2.81-1.092-5.453-3.079-7.441z"></path>
<path fill="#fff" style="fill: var(--color2, #fff)" d="M12.845 10.697c-0.237-0.527-0.486-0.537-0.712-0.547-0.185-0.008-0.395-0.007-0.606-0.007s-0.553 0.079-0.843 0.396c-0.29 0.317-1.107 1.081-1.107 2.637s1.133 3.060 1.291 3.271c0.158 0.211 2.188 3.506 5.403 4.774 2.671 1.053 3.215 0.844 3.795 0.791s1.871-0.765 2.135-1.503c0.263-0.739 0.263-1.371 0.185-1.503s-0.29-0.211-0.606-0.369-1.871-0.923-2.161-1.029c-0.29-0.105-0.501-0.158-0.712 0.159s-0.817 1.029-1.001 1.239c-0.185 0.211-0.369 0.238-0.685 0.079s-1.335-0.492-2.543-1.569c-0.94-0.838-1.575-1.873-1.759-2.19s-0.020-0.487 0.139-0.645c0.142-0.142 0.316-0.369 0.475-0.554s0.211-0.317 0.316-0.527c0.105-0.211 0.053-0.396-0.027-0.554-0.078-0.159-0.693-1.723-0.974-2.348z"></path>
</symbol>
<symbol id="icon-viber1" viewBox="0 0 32 32">
<path fill="#fff" style="fill: var(--color2, #fff)" d="M16 3.333c-1.759 0-7.113 0-10.073 2.703-1.763 1.756-2.593 4.293-2.593 7.964v2c0 3.671 0.831 6.208 2.614 7.984 0.888 0.81 2.099 1.457 3.579 1.905l0.474 0.143v3.552c0 0.417 0.121 0.417 0.161 0.417 0.082 0 0.213-0.026 0.463-0.247 0.060-0.059 0.5-0.535 2.64-2.933l0.216-0.242 0.323 0.021c0.717 0.045 1.456 0.068 2.197 0.068 1.759 0 7.113 0 10.073-2.703 1.762-1.756 2.593-4.293 2.593-7.963v-2c0-3.671-0.831-6.208-2.614-7.984-2.939-2.683-8.293-2.683-10.053-2.683z"></path>
<path fill="#7e57c2" style="fill: var(--color21, #7e57c2)" d="M22.301 19.236c-0.741-0.624-1.083-0.813-2.105-1.427-0.426-0.255-1.075-0.476-1.416-0.476-0.233 0-0.511 0.178-0.682 0.349-0.437 0.437-0.581 0.985-1.347 0.985-0.75 0-2.060-0.763-3-1.75-0.987-0.94-1.75-2.25-1.75-3 0-0.767 0.537-0.92 0.975-1.358 0.171-0.17 0.359-0.449 0.359-0.681 0-0.341-0.221-0.98-0.476-1.406-0.614-1.023-0.802-1.365-1.427-2.105-0.211-0.251-0.452-0.365-0.704-0.366-0.426-0.001-0.985 0.211-1.364 0.493-0.569 0.425-1.165 1.003-1.324 1.723-0.021 0.098-0.034 0.197-0.038 0.295-0.031 0.75 0.264 1.511 0.582 2.156 0.749 1.519 1.739 2.99 2.817 4.303 0.345 0.42 0.72 0.811 1.109 1.188 0.377 0.388 0.768 0.763 1.188 1.109 1.313 1.078 2.784 2.069 4.303 2.817 0.639 0.315 1.391 0.604 2.133 0.583 0.106-0.003 0.212-0.015 0.318-0.039 0.72-0.159 1.298-0.755 1.723-1.324 0.282-0.379 0.493-0.937 0.493-1.364-0.001-0.252-0.115-0.493-0.366-0.704zM22.667 16c-0.368 0-0.667-0.299-0.667-0.667v-0.667c0-3.308-2.692-6-6-6-0.368 0-0.667-0.299-0.667-0.667s0.299-0.667 0.667-0.667c4.043 0 7.333 3.29 7.333 7.333v0.667c0 0.368-0.299 0.667-0.667 0.667zM18.572 14.667c-0.296 0-0.567-0.199-0.645-0.499-0.183-0.701-0.729-1.248-1.427-1.428-0.357-0.093-0.571-0.456-0.479-0.813s0.455-0.57 0.813-0.479c1.165 0.302 2.079 1.215 2.383 2.383 0.093 0.357-0.121 0.72-0.477 0.813-0.057 0.015-0.113 0.022-0.169 0.022z"></path>
<path fill="#7e57c2" style="fill: var(--color21, #7e57c2)" d="M20.667 15.333c-0.368 0-0.667-0.299-0.667-0.667 0-2.125-1.663-3.879-3.785-3.991-0.368-0.019-0.65-0.333-0.631-0.701s0.339-0.651 0.701-0.631c2.831 0.149 5.049 2.487 5.049 5.322 0 0.368-0.299 0.667-0.667 0.667z"></path>
<path fill="#7e57c2" style="fill: var(--color21, #7e57c2)" d="M16 2.667c-3 0-7.675 0.276-10.523 2.877-2.013 2.005-2.811 4.817-2.811 8.456 0 0.301-0.001 0.637 0.001 1-0.003 0.362-0.001 0.698-0.001 0.999 0 3.639 0.797 6.451 2.811 8.456 1.084 0.99 2.436 1.641 3.856 2.071v3.057c0 1.064 0.699 1.083 0.827 1.083h0.006c0.329-0.001 0.614-0.163 0.899-0.416 0.107-0.095 1.347-1.477 2.695-2.987 0.803 0.051 1.565 0.070 2.239 0.070 0 0 0 0 0 0s0 0 0 0c3 0 7.674-0.277 10.523-2.878 2.013-2.004 2.811-4.817 2.811-8.456 0-0.301 0.001-0.637-0.001-1 0.003-0.363 0.001-0.698 0.001-1 0-3.639-0.797-6.451-2.811-8.456-2.848-2.601-7.522-2.877-10.522-2.877zM27.333 15.767v0.232c0 3.271-0.697 5.499-2.191 7.008-2.588 2.326-7.518 2.326-9.143 2.326-0.495 0-1.297-0.001-2.245-0.067-0.263 0.296-3.088 3.455-3.088 3.455v-3.909c-1.403-0.337-2.789-0.889-3.809-1.805-1.494-1.509-2.191-3.738-2.191-7.009v-0.232c0-0.234-0.001-0.487 0.001-0.782-0.002-0.267-0.002-0.519-0.001-0.753v-0.232c0-3.271 0.697-5.499 2.191-7.008 2.587-2.326 7.518-2.326 9.143-2.326s6.555 0 9.142 2.326c1.495 1.509 2.191 3.737 2.191 7.008v0.232c0 0.234 0.001 0.487-0.001 0.782 0.002 0.267 0.002 0.519 0.002 0.753z"></path>
</symbol>
<symbol id="icon-instagram1" viewBox="0 0 32 32">
<path fill="#304ffe" style="fill: var(--color5, #304ffe)" d="M27.78 8.987c-0.267 0.173-0.647 0.333-0.807 0.513-0.060 0.060-0.093 0.127-0.080 0.193v0.687l-0.2 0.673-0.42 1.4-0.453 1.5-0.44 1.48-0.333 1.113c0 0.173-0.007 0.347-0.020 0.513-0.047 0.64-0.18 1.253-0.393 1.827-0.127 0.353-0.28 0.693-0.467 1.013-0.067 0.127-0.147 0.253-0.227 0.373-0.267 0.42-0.587 0.807-0.94 1.147-0.273 0.273-0.573 0.527-0.9 0.74 0 0 0 0-0.007 0-0.053 0.047-0.113 0.087-0.18 0.12-0.207 0.14-0.427 0.26-0.653 0.367-0.153 0.080-0.307 0.147-0.467 0.207-0.033 0.020-0.073 0.033-0.107 0.047-0.38 0.18-0.82 0.3-1.26 0.36-0.027 0.007-0.047 0.007-0.073 0.013-0.267 0.047-0.527 0.087-0.793 0.107-0.12 0.013-0.247 0.020-0.367 0.020l-0.473-0.027-2.28-0.12c0-0.007-0.007 0-0.007 0l-1.147-0.060c-0.087 0-0.18 0-0.267-0.007-0.36-0.013-0.707-0.053-1.053-0.127-0.007 0-0.007 0-0.007 0-0.633-0.12-1.24-0.333-1.807-0.62-0.313-0.16-0.62-0.34-0.907-0.547-0.12-0.087-0.233-0.18-0.347-0.28-0.32-0.267-0.607-0.553-0.873-0.847-0.040-0.040-0.073-0.080-0.107-0.12-0.040-0.040-0.080-0.087-0.113-0.127-0.253-0.32-0.467-0.647-0.64-0.993-0.16-0.307-0.287-0.633-0.387-0.993-0.040-0.127-0.073-0.247-0.1-0.38-0.007-0.007-0.013-0.020-0.013-0.033-0.067-0.273-0.127-0.56-0.16-0.847-0.040-0.22-0.060-0.44-0.060-0.667-0.013-0.087-0.013-0.18-0.013-0.267l1.273-1.967 1.813-2.793 0.513-0.787 0.173-0.273v-0.687c0.013-0.153 0.020-0.313 0.013-0.46-0.007-0.467-0.1-0.92-0.253-1.353-0.147-0.46-0.353-0.893-0.567-1.293-0.253-0.46-0.52-0.873-0.74-1.247-0.327-0.547-0.553-0.993-0.493-1.307 0.48-0.113 0.987-0.173 1.5-0.173h10.667c2.787 0 5.187 1.733 6.18 4.173 0.107 0.26 0.2 0.533 0.267 0.813z"></path>
<path fill="#4928f4" style="fill: var(--color6, #4928f4)" d="M28 10.667v0.18l-6.52 3.78c0 0.32-0.080 0.613-0.227 0.88-0.207 0.387-0.553 0.707-0.993 0.98-0.447 0.273-0.993 0.493-1.607 0.653 0 0 0-0.007-0.007 0-2.373 0.613-5.613 0.333-7.187-0.84-0.44-0.327-0.747-0.727-0.88-1.187-0.040-0.153-0.060-0.32-0.060-0.487v-4.793c0.007-0.1-0.060-0.2-0.18-0.3-0.36-0.287-1.207-0.56-2.153-0.833-0.74-0.207-1.533-0.413-2.2-0.613-0.527-0.16-0.973-0.32-1.24-0.473 0.12-0.233 0.26-0.467 0.407-0.687 0.933-1.367 2.36-2.373 4.013-2.753 0.48-0.113 0.987-0.173 1.5-0.173h7.2c3.58 0.627 6.88 2.087 9.647 4.173 0.107 0.26 0.2 0.533 0.267 0.813 0.12 0.44 0.193 0.893 0.213 1.367 0.007 0.1 0.007 0.207 0.007 0.313z"></path>
<path fill="#6200ea" style="fill: var(--color7, #6200ea)" d="M28 10.667v2.94l-0.147 0.453-0.5 1.553-0.52 1.6-0.273 0.853-0.253 0.793-0.247 0.753-0.24 0.747-0.127 0.393-0.167 0.52c0 0.507-0.013 0.953-0.047 1.333-0.007 0.040-0.013 0.080-0.013 0.12-0.040 0.353-0.093 0.653-0.18 0.907-0.007 0.040-0.020 0.080-0.033 0.113-0.173 0.48-0.433 0.787-0.82 0.987-0.093 0.053-0.2 0.093-0.313 0.133-0.353 0.12-0.8 0.18-1.347 0.213-0.4 0.027-0.86 0.033-1.38 0.033h-0.46l-10.107-0.413c-0.52-0.007-0.967-0.040-1.353-0.093-0.56-0.087-0.993-0.233-1.32-0.453-0.467-0.3-0.74-0.74-0.9-1.353-0.040-0.147-0.073-0.3-0.093-0.467-0.067-0.387-0.1-0.833-0.12-1.333 0-0.1 0-0.2-0.007-0.307-0.007-0.007 0-0.007 0-0.007v-0.387c-0.007-0.193-0.007-0.393-0.007-0.6l0.033-1.073 0.020-0.767 0.027-0.893v-0.127l0.093-3.28 0.047-1.54 0.040-1.513 0.013-0.4c0-0.207-0.7-0.327-1.48-0.427-0.62-0.080-1.3-0.153-1.707-0.247 0.033-0.153 0.067-0.307 0.107-0.453 0.12-0.48 0.3-0.933 0.527-1.367 0.12-0.233 0.26-0.467 0.407-0.687 1.44-0.633 2.94-1.127 4.507-1.447 1.373-0.287 2.807-0.44 4.287-0.44 4.907 0 9.44 1.66 13.027 4.46 0.347 0.267 0.687 0.553 1.020 0.853 0.007 0.1 0.007 0.207 0.007 0.313z"></path>
<path fill="#673ab7" style="fill: var(--color8, #673ab7)" d="M28 12.247v3.027l-0.367 0.707-0.7 1.367-0.373 0.72-0.34 0.66-0.147 0.287c0 0.207 0 0.407-0.013 0.6 0 0.287-0.013 0.56-0.033 0.813-0.027 0.3-0.067 0.573-0.107 0.827-0.1 0.527-0.24 0.98-0.44 1.353-0.027 0.047-0.053 0.093-0.080 0.133-0.073 0.12-0.16 0.233-0.253 0.34-0.12 0.147-0.253 0.273-0.407 0.38-0.227 0.173-0.493 0.313-0.8 0.42-0.38 0.14-0.82 0.233-1.34 0.287-0.34 0.033-0.713 0.053-1.12 0.053l-0.28 0.013-9.313 0.54c-0.34 0-0.66-0.020-0.967-0.060-0.033-0.007-0.060-0.013-0.093-0.013-0.453-0.073-0.867-0.193-1.24-0.36-0.453-0.2-0.847-0.467-1.18-0.787-0.293-0.287-0.547-0.613-0.753-0.98-0.047-0.087-0.093-0.167-0.133-0.26-0.2-0.393-0.36-0.833-0.48-1.313-0.020-0.080-0.040-0.167-0.053-0.253-0.040-0.153-0.073-0.313-0.093-0.48-0.073-0.427-0.113-0.88-0.133-1.353v-0.007c-0.007-0.193-0.013-0.38-0.013-0.58l-0.327-0.78-0.047-0.12-0.040-0.1-0.5-1.193-0.080-0.193-0.48-1.153-0.533-1.287c0 0 0 0-0.007 0l-0.54-1.3-0.193-0.473v-1.060c0-0.42 0.040-0.833 0.113-1.233 0.033-0.153 0.067-0.307 0.107-0.453 0.567-0.327 1.16-0.627 1.767-0.893 1.387-0.62 2.873-1.080 4.413-1.36 1.147-0.207 2.34-0.32 3.547-0.32 4.873 0 9.293 1.767 12.747 4.647 0.133 0.107 0.26 0.213 0.387 0.327 0.313 0.273 0.62 0.56 0.92 0.867z"></path>
<path fill="#8e24aa" style="fill: var(--color9, #8e24aa)" d="M28 14.233v3.427l-0.38 0.793-0.72 1.5-0.007 0.020c0 0.287-0.013 0.547-0.033 0.78-0.067 0.767-0.253 1.253-0.56 1.553-0.22 0.227-0.493 0.353-0.833 0.42-0.020 0.007-0.047 0.007-0.067 0.013-0.107 0.020-0.22 0.033-0.34 0.033-0.413 0.040-0.9 0.013-1.46-0.027-0.060 0-0.127-0.007-0.193-0.013-0.407-0.027-0.84-0.053-1.32-0.073-0.26-0.007-0.533-0.013-0.813-0.013h-0.013l-0.68 0.053-1.513 0.107-1.98 0.153-2.020 0.147-1.047 0.080-1.033 0.073c-0.18 0-0.353 0-0.527-0.007 0 0-0.007-0.007-0.007 0-0.753-0.013-1.427-0.060-2.027-0.173-0.553-0.093-1.040-0.24-1.453-0.46-0.427-0.207-0.78-0.5-1.067-0.873-0.273-0.367-0.473-0.827-0.6-1.38 0-0.007 0-0.007 0-0.007-0.093-0.447-0.147-0.967-0.147-1.553l-0.1-0.18-0.593-1.060-0.087-0.147-0.047-0.093-0.62-1.1-0.307-0.553-0.387-0.687-0.667-1.193-0.353-0.627v-2.453c0.587-0.387 1.193-0.727 1.82-1.033 0.76-0.387 1.547-0.713 2.367-0.98 0.893-0.293 1.827-0.527 2.78-0.68 0.967-0.16 1.96-0.24 2.98-0.24 4.533 0 8.693 1.62 11.9 4.313 0.147 0.113 0.287 0.24 0.427 0.36 0.56 0.5 1.093 1.040 1.58 1.607 0.053 0.060 0.107 0.113 0.147 0.173z"></path>
<path fill="#c2185b" style="fill: var(--color10, #c2185b)" d="M28 16.473v4.82c-0.16-0.093-0.38-0.207-0.653-0.327-0.147-0.073-0.313-0.147-0.487-0.213-0.253-0.113-0.527-0.22-0.833-0.327-0.067-0.027-0.133-0.047-0.207-0.067-0.12-0.047-0.247-0.087-0.373-0.127-0.393-0.12-0.827-0.233-1.28-0.333-0.173-0.033-0.353-0.067-0.533-0.093-0.58-0.1-1.2-0.16-1.847-0.167-0.053-0.007-0.113-0.007-0.167-0.007l-1.713 0.013-2.34 0.013-4.993 0.040c-1.587 0-2.56 0.38-3.147 0.533 0 0-0.007 0-0.007 0.007-0.62 0.16-0.813 0.060-0.867-1.027-0.013-0.3-0.020-0.687-0.020-1.16l-0.373-0.287-0.653-0.493-0.4-0.307-0.080-0.060-1.273-0.967-0.347-0.267-0.64-0.48-0.767-0.587v-2.267c0.067-0.053 0.127-0.1 0.193-0.14 0.967-0.667 2-1.233 3.093-1.693 0.973-0.413 2-0.74 3.053-0.973 0.287-0.060 0.58-0.12 0.88-0.16 0.887-0.153 1.8-0.227 2.727-0.227 4.007 0 7.687 1.393 10.607 3.7 0.44 0.347 0.867 0.713 1.267 1.107 0.547 0.52 1.060 1.073 1.533 1.66 0.093 0.12 0.187 0.24 0.28 0.367 0.127 0.16 0.247 0.327 0.367 0.493z"></path>
<path fill="#d81b60" style="fill: var(--color11, #d81b60)" d="M28 19.147v2.187c0 0.433-0.040 0.86-0.12 1.273-0.12 0.613-0.327 1.2-0.607 1.747-0.147 0.033-0.313 0.033-0.5 0.007-0.42-0.073-0.913-0.293-1.447-0.58-0.027-0.007-0.053-0.020-0.073-0.033-0.167-0.087-0.34-0.18-0.513-0.287-0.353-0.193-0.727-0.407-1.1-0.607-0.080-0.040-0.16-0.080-0.233-0.12-0.427-0.22-0.867-0.42-1.307-0.573 0 0 0 0-0.007 0-0.093-0.033-0.193-0.067-0.293-0.093-0.38-0.107-0.767-0.173-1.14-0.173l-0.733-0.213-3.247-0.94c0 0 0 0-0.007 0l-2.867-0.833c-2.507 0-4.047 1.067-4.793 0.66-0.293-0.153-0.467-0.54-0.527-1.3-0.020-0.213-0.027-0.453-0.027-0.733l-0.78-0.38-0.033-0.013h-0.007l-0.56-0.28-0.613-0.293-0.047-0.020-0.113-0.060-2.307-1.12v-2.287c0.113-0.1 0.233-0.193 0.353-0.287 0.127-0.1 0.253-0.193 0.38-0.293 0.007 0 0.007 0 0.007 0 0.787-0.567 1.62-1.067 2.507-1.48 1.033-0.493 2.133-0.873 3.273-1.12 0.167-0.040 0.34-0.080 0.513-0.107 0.947-0.18 1.92-0.273 2.913-0.273 3.513 0 6.74 1.14 9.34 3.060 0.753 0.56 1.453 1.18 2.093 1.853 0.527 0.553 1.013 1.153 1.453 1.78 0.033 0.047 0.067 0.093 0.1 0.133 0.247 0.36 0.473 0.727 0.687 1.107 0.14 0.227 0.26 0.46 0.38 0.693z"></path>
<path fill="#f50057" style="fill: var(--color12, #f50057)" d="M27.88 22.607c-0.12 0.613-0.327 1.2-0.607 1.747-0.127 0.247-0.267 0.48-0.42 0.707-0.093 0.14-0.193 0.273-0.293 0.4-0.24-0.093-0.593-0.227-1.027-0.373 0 0 0 0 0-0.007-0.327-0.113-0.7-0.233-1.1-0.347-0.113-0.033-0.227-0.067-0.347-0.1-0.473-0.127-0.967-0.24-1.447-0.307-0.4-0.067-0.793-0.107-1.16-0.107l-0.307-0.087h-0.007l-9.687-2.787-2.64-0.627c0 0 0 0-0.007 0l-1.527-0.353c0-0.007 0-0.007 0-0.007l-0.273-0.060-0.14-0.033-1.113-0.26-0.127-0.033-0.947-0.78-0.707-0.593v-2.72c0.247-0.24 0.5-0.467 0.767-0.687 0.080-0.073 0.167-0.14 0.253-0.207 0.080-0.067 0.167-0.133 0.253-0.2 0.607-0.46 1.247-0.873 1.927-1.227 0.867-0.467 1.787-0.84 2.753-1.107 0.187-0.060 0.373-0.113 0.567-0.153 1.093-0.273 2.24-0.413 3.427-0.413 2.98 0 5.753 0.9 8.047 2.44 1.14 0.767 2.167 1.687 3.033 2.733 0.44 0.527 0.84 1.080 1.193 1.667 0.033 0.047 0.060 0.087 0.087 0.133 0.213 0.353 0.413 0.72 0.593 1.093 0.167 0.333 0.313 0.667 0.447 1.013 0.213 0.533 0.387 1.080 0.533 1.64z"></path>
<path fill="#ff1744" style="fill: var(--color13, #ff1744)" d="M26.853 25.060c-0.093 0.14-0.193 0.273-0.293 0.4-0.293 0.367-0.613 0.7-0.973 0.993-0.313 0.26-0.647 0.493-1 0.693-0.133-0.033-0.267-0.073-0.407-0.127-0.44-0.153-0.9-0.407-1.327-0.673-0.64-0.407-1.193-0.847-1.44-1.047-0.093-0.080-0.14-0.12-0.14-0.12l-10.080-0.893-6.633-3.213-0.56-0.173v-2.98c0.313-0.373 0.647-0.727 1-1.067 0.227-0.213 0.467-0.427 0.713-0.627 0.040-0.033 0.080-0.067 0.12-0.093 0.027-0.033 0.060-0.053 0.087-0.067 0.393-0.32 0.807-0.607 1.233-0.867 0.493-0.313 1.013-0.593 1.553-0.827 0.58-0.26 1.187-0.48 1.813-0.647 1.087-0.307 2.24-0.467 3.427-0.467 2.72 0 5.233 0.827 7.307 2.247 1.327 0.907 2.473 2.053 3.38 3.38 0.3 0.427 0.567 0.88 0.813 1.347 0.087 0.173 0.173 0.347 0.247 0.52 0.080 0.167 0.153 0.333 0.227 0.5 0.14 0.347 0.267 0.693 0.38 1.053 0.213 0.667 0.373 1.347 0.473 2.053 0.033 0.233 0.060 0.467 0.080 0.7z"></path>
<path fill="#ff5722" style="fill: var(--color14, #ff5722)" d="M25.593 26.28c0 0.053 0 0.113-0.007 0.173-0.313 0.26-0.647 0.493-1 0.693-0.147 0.080-0.293 0.16-0.447 0.227-0.153 0.073-0.307 0.14-0.467 0.2-0.227-0.12-0.533-0.267-0.86-0.407-0.46-0.207-0.96-0.393-1.347-0.453-0.093-0.020-0.18-0.027-0.26-0.027l-1.093-0.14h-0.013l-2.733-0.36-0.64-0.080-5.040-0.653c-0.327 0-0.673-0.020-1.033-0.067-0.44-0.040-0.9-0.107-1.36-0.2-0.453-0.080-0.913-0.187-1.353-0.3-0.46-0.107-0.913-0.233-1.333-0.353-0.487-0.147-0.94-0.287-1.32-0.413-0.313-0.1-0.58-0.193-0.787-0.267-0.12-0.287-0.22-0.587-0.293-0.893-0.14-0.52-0.207-1.067-0.207-1.627v-1.113c0.213-0.353 0.447-0.7 0.707-1.027 0.473-0.627 1.013-1.2 1.6-1.707 0.020-0.027 0.047-0.047 0.067-0.060l0.007-0.007c0.207-0.187 0.42-0.353 0.647-0.513 0.027-0.027 0.053-0.047 0.080-0.067 0.107-0.080 0.22-0.16 0.34-0.233 0.953-0.647 2.007-1.153 3.133-1.493 1.067-0.32 2.193-0.487 3.367-0.487 2.327 0 4.5 0.687 6.313 1.86 1.34 0.86 2.493 1.993 3.373 3.32 0.107 0.153 0.207 0.307 0.307 0.467 0.46 0.78 0.84 1.62 1.12 2.5 0.033 0.1 0.060 0.2 0.087 0.307 0.053 0.18 0.1 0.367 0.14 0.553 0.013 0.047 0.027 0.093 0.040 0.147 0.093 0.42 0.16 0.86 0.207 1.3 0 0.007 0 0.007 0 0.007 0.040 0.393 0.060 0.793 0.060 1.193z"></path>
<path fill="#ff6f00" style="fill: var(--color15, #ff6f00)" d="M24.22 26.28c0 0.233-0.013 0.487-0.040 0.74-0.013 0.12-0.027 0.24-0.040 0.353-0.153 0.073-0.307 0.14-0.467 0.2-0.3 0.113-0.607 0.207-0.92 0.273-0.213 0.047-0.433 0.087-0.653 0.107h-0.007c-0.207-0.127-0.447-0.28-0.693-0.453-0.447-0.313-0.913-0.667-1.287-0.953-0.007-0.007-0.007-0.007-0.013-0.013-0.393-0.3-0.673-0.527-0.673-0.527l-0.707 0.027-1.36 0.047-0.633 0.027-4.7 0.173c-0.14 0.007-0.307 0.007-0.513 0h-0.007c-0.28-0.007-0.613-0.027-0.98-0.060-0.427-0.033-0.893-0.073-1.367-0.12-0.46-0.053-0.927-0.107-1.373-0.16-0.493-0.053-0.96-0.113-1.36-0.167-0.313-0.040-0.587-0.073-0.807-0.1-0.187-0.213-0.353-0.433-0.513-0.673-0.24-0.36-0.447-0.74-0.607-1.147-0.12-0.287-0.22-0.587-0.293-0.893 0.193-0.593 0.447-1.153 0.747-1.693 0.24-0.44 0.52-0.86 0.827-1.26 0.3-0.393 0.627-0.76 0.98-1.093v-0.007c0.1-0.1 0.2-0.193 0.3-0.28 0.187-0.173 0.38-0.333 0.58-0.487h0.007c0.007-0.013 0.013-0.013 0.020-0.020 0.16-0.127 0.327-0.24 0.493-0.353 0.987-0.673 2.1-1.173 3.3-1.467 0.793-0.193 1.627-0.3 2.487-0.3 1.693 0 3.293 0.407 4.7 1.14h0.007c1.207 0.62 2.273 1.473 3.133 2.5 0.473 0.547 0.88 1.147 1.213 1.78 0.233 0.427 0.433 0.873 0.6 1.327 0.013 0.040 0.027 0.073 0.040 0.107 0.113 0.333 0.213 0.68 0.3 1.027 0.060 0.247 0.107 0.5 0.147 0.753 0.013 0.080 0.027 0.153 0.033 0.233 0.067 0.46 0.1 0.933 0.1 1.413z"></path>
<path fill="#ff9800" style="fill: var(--color16, #ff9800)" d="M22.853 26.28v0.067c0 0.227-0.020 0.513-0.040 0.82-0.020 0.227-0.040 0.46-0.060 0.68-0.213 0.047-0.433 0.087-0.653 0.107h-0.007c-0.253 0.033-0.5 0.047-0.76 0.047h-1.167l-0.253-0.073-1.313-0.4-5.753-1.727c0 0-0.553 0.22-1.333 0.48h-0.007c-0.3 0.1-0.627 0.207-0.973 0.313-0.433 0.127-0.893 0.253-1.347 0.353-0.467 0.107-0.927 0.187-1.34 0.22-0.127 0.013-0.253 0.020-0.367 0.020-0.373-0.207-0.733-0.453-1.060-0.727-0.287-0.24-0.553-0.5-0.8-0.787-0.187-0.213-0.353-0.433-0.513-0.673 0.047-0.3 0.1-0.593 0.18-0.88 0.2-0.793 0.513-1.553 0.927-2.247 0.227-0.393 0.48-0.773 0.773-1.127 0.007-0.020 0.027-0.040 0.047-0.053-0.007-0.007 0-0.007 0-0.007 0.087-0.113 0.18-0.22 0.273-0.32 0-0.007 0-0.007 0-0.007 0.273-0.293 0.553-0.573 0.86-0.833 0.107-0.087 0.207-0.173 0.32-0.26 0.020-0.020 0.040-0.033 0.067-0.053 1.5-1.147 3.373-1.84 5.393-1.84 2.293 0 4.38 0.86 5.96 2.273 0.76 0.687 1.407 1.507 1.893 2.42 0.040 0.067 0.080 0.14 0.113 0.213 0.060 0.12 0.12 0.247 0.173 0.38 0.22 0.48 0.393 0.987 0.513 1.507 0.013 0.053 0.027 0.107 0.040 0.16 0.053 0.247 0.1 0.5 0.133 0.753 0.053 0.393 0.080 0.793 0.080 1.2z"></path>
<path fill="#ffc107" style="fill: var(--color17, #ffc107)" d="M21.48 26.28c0 0.133-0.007 0.28-0.013 0.433-0.013 0.247-0.033 0.513-0.067 0.787-0.013 0.167-0.040 0.333-0.067 0.5h-3.653l-4.76-0.76c-0.393 0-1.247 0.173-2.147 0.34-0.473 0.087-0.953 0.18-1.387 0.24-0.053 0.007-0.107 0.013-0.153 0.020h-0.007c-0.467-0.1-0.92-0.253-1.347-0.453-0.133-0.060-0.267-0.127-0.4-0.2-0.373-0.207-0.733-0.453-1.060-0.727-0.007-0.080-0.013-0.147-0.013-0.18 0-0.173 0.007-0.34 0.020-0.507 0.027-0.427 0.087-0.84 0.18-1.24 0.147-0.607 0.36-1.193 0.647-1.733 0.053-0.113 0.113-0.227 0.18-0.333 0.027-0.053 0.060-0.1 0.087-0.153 0.12-0.193 0.253-0.38 0.387-0.567 0.28-0.367 0.593-0.713 0.927-1.027 0.007 0 0.007 0 0.007 0 0.027-0.027 0.053-0.053 0.080-0.073 0.033-0.027 0.060-0.060 0.093-0.080 0.133-0.12 0.267-0.227 0.407-0.327 0-0.007 0.007-0.007 0.007-0.007 1.26-0.94 2.82-1.493 4.52-1.493 1.32 0 2.547 0.333 3.62 0.92h0.007c0.92 0.507 1.72 1.193 2.353 2.020 0.247 0.32 0.467 0.66 0.653 1.020h0.007c0.033 0.067 0.067 0.133 0.1 0.2 0.2 0.393 0.36 0.807 0.48 1.233h0.007c0.007 0.033 0.020 0.067 0.027 0.1 0.080 0.287 0.147 0.58 0.193 0.88 0.007 0.060 0.013 0.127 0.020 0.187 0.047 0.32 0.067 0.647 0.067 0.98z"></path>
<path fill="#ffd54f" style="fill: var(--color18, #ffd54f)" d="M20.113 26.207c0 0.107 0 0.22-0.013 0.327v0.007c0 0.007 0 0.007 0 0.007-0.013 0.48-0.080 0.953-0.187 1.38 0 0.027-0.007 0.047-0.020 0.073h-3.113l-2.907-0.627-0.053 0.013-2.973 0.613h-0.18c-0.427 0-0.847-0.040-1.253-0.12-0.060-0.013-0.12-0.027-0.18-0.040h-0.007c-0.467-0.1-0.92-0.253-1.347-0.453-0.013-0.073-0.027-0.147-0.033-0.22-0.047-0.287-0.067-0.587-0.067-0.887 0-0.113 0-0.227 0.007-0.34 0.020-0.36 0.073-0.713 0.153-1.053 0.053-0.253 0.127-0.5 0.213-0.733 0.073-0.207 0.16-0.407 0.253-0.6 0.080-0.167 0.173-0.327 0.267-0.487 0.093-0.153 0.193-0.3 0.3-0.447 0.267-0.367 0.58-0.707 0.927-1.007 0.2-0.173 0.42-0.34 0.647-0.487 0.973-0.64 2.14-1.013 3.4-1.013 0.247 0 0.487 0.013 0.72 0.047h0.013c0.713 0.080 1.38 0.28 1.993 0.58 0.007 0 0.007 0 0.007 0 0.967 0.473 1.787 1.187 2.387 2.067 0.1 0.147 0.2 0.307 0.287 0.467 0.073 0.127 0.14 0.26 0.2 0.393 0.093 0.207 0.18 0.427 0.253 0.647h0.007c0.073 0.247 0.14 0.493 0.187 0.753v0.007c0.073 0.367 0.113 0.747 0.113 1.133z"></path>
<path fill="#ffe082" style="fill: var(--color19, #ffe082)" d="M18.74 26.347v0.020c0 0.393-0.047 0.78-0.14 1.16-0.033 0.16-0.080 0.32-0.14 0.473h-2.987l-1.527-0.42-1.527 0.42h-1.753c-0.427 0-0.847-0.040-1.253-0.12-0.013-0.020-0.020-0.040-0.027-0.060-0.093-0.287-0.167-0.573-0.2-0.873-0.027-0.193-0.040-0.393-0.040-0.6 0-0.080 0-0.167 0.013-0.247 0.007-0.313 0.053-0.62 0.133-0.913 0.040-0.2 0.1-0.393 0.18-0.58 0.027-0.093 0.067-0.18 0.113-0.267 0.1-0.227 0.22-0.447 0.353-0.66 0.147-0.213 0.307-0.413 0.487-0.6 0.213-0.24 0.453-0.46 0.727-0.64 0.467-0.34 1-0.593 1.58-0.733 0.387-0.107 0.793-0.16 1.213-0.16 1.333 0 2.527 0.533 3.393 1.393 0.033 0.033 0.073 0.073 0.107 0.12h0.007c0.093 0.1 0.18 0.2 0.267 0.313 0.247 0.313 0.453 0.653 0.613 1.027 0.080 0.173 0.147 0.353 0.2 0.54 0.007 0.027 0.013 0.047 0.020 0.073 0.093 0.327 0.153 0.667 0.167 1.020 0.013 0.1 0.020 0.207 0.020 0.313z"></path>
<path fill="#ffecb3" style="fill: var(--color20, #ffecb3)" d="M17.373 26.347c0 0.273-0.033 0.533-0.107 0.78-0.067 0.267-0.167 0.52-0.293 0.76-0.020 0.040-0.067 0.113-0.067 0.113h-5.92c-0.007-0.007-0.013-0.020-0.013-0.027-0.080-0.127-0.147-0.253-0.2-0.393-0.133-0.307-0.213-0.64-0.24-0.987-0.013-0.080-0.013-0.167-0.013-0.247 0-0.040 0-0.087 0.007-0.127 0.007-0.293 0.047-0.573 0.127-0.833 0.067-0.24 0.153-0.46 0.267-0.673 0 0 0.007-0.007 0.007-0.013 0.080-0.14 0.167-0.28 0.267-0.413 0.327-0.44 0.76-0.8 1.26-1.033 0.007 0 0.007 0 0.007 0 0.16-0.080 0.327-0.147 0.5-0.193 0 0 0 0 0.007 0 0.307-0.093 0.64-0.14 0.98-0.14 0.393 0 0.773 0.060 1.12 0.187 0.127 0.033 0.247 0.087 0.367 0.147 0 0 0 0 0.007 0 0.573 0.273 1.060 0.7 1.393 1.233 0.067 0.1 0.127 0.207 0.18 0.32 0.027 0.047 0.053 0.1 0.073 0.147 0.153 0.347 0.247 0.727 0.273 1.127 0.007 0.033 0.007 0.067 0.007 0.107 0.007 0.053 0.007 0.107 0.007 0.16z"></path>
<path fill="none" stroke="#fff" style="stroke: var(--color2, #fff)" stroke-linejoin="round" stroke-linecap="round" stroke-miterlimit="10" stroke-width="1.3333" d="M20 7.333h-8c-2.6 0-4.667 2.067-4.667 4.667v8c0 2.6 2.067 4.667 4.667 4.667h8c2.6 0 4.667-2.067 4.667-4.667v-8c0-2.6-2.067-4.667-4.667-4.667z"></path>
<path fill="#fff" style="fill: var(--color2, #fff)" d="M21.333 10.667c0 0.368-0.298 0.667-0.667 0.667s-0.667-0.298-0.667-0.667c0-0.368 0.298-0.667 0.667-0.667s0.667 0.298 0.667 0.667z"></path>
<path fill="none" stroke="#fff" style="stroke: var(--color2, #fff)" stroke-linejoin="round" stroke-linecap="round" stroke-miterlimit="10" stroke-width="1.3333" d="M20 16c0 2.209-1.791 4-4 4s-4-1.791-4-4c0-2.209 1.791-4 4-4s4 1.791 4 4z"></path>
</symbol>
<symbol id="icon-telegram1" viewBox="0 0 32 32">
<path fill="#29b6f6" style="fill: var(--color1, #29b6f6)" d="M16 2.667c-7.364 0-13.333 5.97-13.333 13.333s5.97 13.333 13.333 13.333v0c7.364 0 13.333-5.97 13.333-13.333s-5.97-13.333-13.333-13.333v0z"></path>
<path fill="#fff" style="fill: var(--color2, #fff)" d="M22.633 10l-2.497 12.751c0 0-0.107 0.583-0.83 0.583-0.384 0-0.582-0.183-0.582-0.183l-5.409-4.489-2.647-1.334-3.397-0.903c0 0-0.605-0.175-0.605-0.675 0-0.417 0.622-0.615 0.622-0.615l14.211-5.645c-0.001-0.001 0.434-0.157 0.751-0.156 0.195 0 0.417 0.083 0.417 0.333 0 0.167-0.033 0.333-0.033 0.333z"></path>
<path fill="#b0bec5" style="fill: var(--color3, #b0bec5)" d="M15.333 20.337l-2.284 2.249c0 0-0.099 0.077-0.232 0.080-0.046 0.001-0.095-0.006-0.146-0.029l0.643-3.977 2.019 1.676z"></path>
<path fill="#cfd8dc" style="fill: var(--color4, #cfd8dc)" d="M19.931 12.131c-0.113-0.147-0.321-0.173-0.467-0.062l-8.797 5.265c0 0 1.404 3.928 1.618 4.608s0.387 0.697 0.387 0.697l0.643-3.977 6.555-6.064c0.147-0.111 0.174-0.32 0.063-0.467z"></path>
</symbol>
<symbol id="icon-mail" viewBox="0 0 32 32">
<path d="M29 4h-26c-1.65 0-3 1.35-3 3v20c0 1.65 1.35 3 3 3h26c1.65 0 3-1.35 3-3v-20c0-1.65-1.35-3-3-3zM12.461 17.199l-8.461 6.59v-15.676l8.461 9.086zM5.512 8h20.976l-10.488 7.875-10.488-7.875zM12.79 17.553l3.21 3.447 3.21-3.447 6.58 8.447h-19.579l6.58-8.447zM19.539 17.199l8.461-9.086v15.676l-8.461-6.59z"></path>
</symbol>
<symbol id="icon-phone" viewBox="0 0 32 32">
<path d="M22 20c-2 2-2 4-4 4s-4-2-6-4-4-4-4-6 2-2 4-4-4-8-6-8-6 6-6 6c0 4 4.109 12.109 8 16s12 8 16 8c0 0 6-4 6-6s-6-8-8-6z"></path>
</symbol>
<symbol id="icon-arrow-up2" viewBox="0 0 32 32">
<path d="M27.414 12.586l-10-10c-0.781-0.781-2.047-0.781-2.828 0l-10 10c-0.781 0.781-0.781 2.047 0 2.828s2.047 0.781 2.828 0l6.586-6.586v19.172c0 1.105 0.895 2 2 2s2-0.895 2-2v-19.172l6.586 6.586c0.39 0.39 0.902 0.586 1.414 0.586s1.024-0.195 1.414-0.586c0.781-0.781 0.781-2.047 0-2.828z"></path>
</symbol>
</defs>
</svg>

